# xmcd
# 
# Track frame offsets:
#     180
#     10084
#     27996
#     42131
#     60241
#     76184
#     94225
#     106409
#     122927
#     141672
# 
# Disc length: 2050
# 
# Revision: 7
# Processed by: cddbd v1.5.2PL0 Copyright (c) Steve Scherf et al.
# Submitted via: fre:ac v1.0.17
# 
DISCID=7d08000a
DTITLE=Various Artist - New Country - Volume 4 - Number 1
DYEAR=1996
DGENRE=Country
TTITLE0=Barbara Lamb - Forked Deer
TTITLE1=Dolly Parton with John Popper - Today I Started Loving You Again
TTITLE2=Harley Allen - Boy She Did
TTITLE3=Beth Steven and April Stevens - What About Me
TTITLE4=Tony Toliver - He's On The Way Home
TTITLE5=Charlie Major - It Can't Happen To Me
TTITLE6=Kathy Kallick - Call Me A Taxi
TTITLE7=Kate MacKenzie - Carolina
TTITLE8=Salamander Crossing - Passion Train
TTITLE9=John Hartford - Wild Hog In The Red Brush
EXTD=
EXTT0=
EXTT1=
EXTT2=
EXTT3=
EXTT4=
EXTT5=
EXTT6=
EXTT7=
EXTT8=
EXTT9=
PLAYORDER=
